<svg 
 xmlns="http://www.w3.org/2000/svg"
 xmlns:xlink="http://www.w3.org/1999/xlink"
 width="320px" height="280px">
<path fill-rule="evenodd"  fill="rgb(247, 245, 244)"
 d="M315.000,280.000 L5.000,280.000 C2.239,280.000 0.000,277.761 0.000,275.001 L0.000,5.000 C0.000,2.238 2.239,0.000 5.000,0.000 L136.287,0.000 C136.417,0.012 138.640,0.273 141.550,4.230 C145.759,9.951 152.280,14.299 159.763,14.299 C167.506,14.299 173.778,9.332 178.395,3.617 C181.120,0.241 183.402,0.015 183.692,0.000 L315.000,0.000 C317.761,0.000 320.000,2.238 320.000,5.000 L320.000,275.001 C320.000,277.761 317.761,280.000 315.000,280.000 Z"/>
</svg>