<svg 
 xmlns="http://www.w3.org/2000/svg"
 xmlns:xlink="http://www.w3.org/1999/xlink"
 width="33px" height="23px">
<path fill-rule="evenodd"  opacity="0.251" fill="rgb(140, 185, 32)"
 d="M31.221,10.497 C30.311,11.382 29.198,11.824 27.880,11.824 C26.574,11.824 25.464,11.382 24.548,10.497 C23.633,9.613 23.175,8.514 23.175,7.208 C23.175,5.903 23.630,4.805 24.540,3.923 C25.449,3.034 26.563,2.589 27.880,2.589 C29.198,2.589 30.311,3.034 31.221,3.923 C32.130,4.805 32.585,5.903 32.585,7.208 C32.585,8.514 32.130,9.613 31.221,10.497 ZM28.938,6.099 C28.664,5.811 28.312,5.669 27.880,5.669 C27.449,5.669 27.096,5.811 26.822,6.099 C26.548,6.384 26.411,6.754 26.411,7.208 C26.411,7.662 26.548,8.034 26.822,8.317 C27.096,8.604 27.449,8.747 27.880,8.747 C28.312,8.747 28.664,8.604 28.938,8.317 C29.212,8.034 29.349,7.662 29.349,7.208 C29.349,6.754 29.212,6.384 28.938,6.099 ZM11.851,16.170 C12.751,16.170 13.556,15.971 14.266,15.570 C14.976,15.171 15.501,14.622 15.841,13.920 L21.061,16.923 C20.141,18.499 18.861,19.751 17.221,20.672 C15.581,21.590 13.791,22.052 11.851,22.052 C8.691,22.052 6.071,21.001 3.991,18.903 C1.911,16.800 0.871,14.189 0.871,11.071 C0.871,7.952 1.911,5.339 3.991,3.242 C6.071,1.138 8.691,0.090 11.851,0.090 C13.791,0.090 15.581,0.550 17.221,1.471 C18.861,2.389 20.141,3.630 21.061,5.190 L15.841,8.189 C15.501,7.511 14.971,6.972 14.251,6.569 C13.531,6.172 12.731,5.969 11.851,5.969 C10.371,5.969 9.171,6.449 8.251,7.411 C7.331,8.373 6.871,9.591 6.871,11.071 C6.871,12.549 7.331,13.771 8.251,14.728 C9.171,15.691 10.371,16.170 11.851,16.170 Z"/>
</svg>