<svg 
 xmlns="http://www.w3.org/2000/svg"
 xmlns:xlink="http://www.w3.org/1999/xlink"
 width="500px" height="650px">
<path fill-rule="evenodd"  stroke="rgb(242, 242, 242)" stroke-width="1px" stroke-linecap="butt" stroke-linejoin="miter" fill="rgb(255, 255, 255)"
 d="M490.500,650.499 L287.488,650.499 C287.356,650.488 283.909,650.144 279.385,643.993 C272.910,635.190 262.876,628.503 251.365,628.503 C239.453,628.503 229.803,636.143 222.700,644.938 C218.471,650.175 214.936,650.482 214.540,650.499 L10.500,650.499 C4.977,650.499 0.500,646.023 0.500,640.500 L0.500,10.500 C0.500,4.977 4.977,0.501 10.500,0.501 L214.012,0.501 C214.144,0.512 217.591,0.856 222.115,7.006 C228.590,15.810 238.624,22.497 250.135,22.497 C262.047,22.497 271.697,14.856 278.800,6.062 C283.029,0.825 286.564,0.519 286.960,0.501 L490.500,0.501 C496.023,0.501 500.500,4.977 500.500,10.500 L500.500,640.500 C500.500,646.023 496.023,650.499 490.500,650.499 Z"/>
</svg>