<?xml version="1.0" encoding="UTF-8" standalone="no"?>
<svg width="500px" height="601px" viewBox="0 0 501 601" version="1.1" xmlns="http://www.w3.org/2000/svg" xmlns:xlink="http://www.w3.org/1999/xlink">
    <!-- Generator: Sketch 49.3 (51167) - http://www.bohemiancoding.com/sketch -->
    <title>form-border-b-20</title>
    <desc>Created with Sketch.</desc>
    <defs></defs>
    <g id="Page-1" stroke="none" stroke-width="1" fill="none" fill-rule="evenodd">
        <g id="form-border-b-20" fill="#FFFFFF" stroke="#F2F2F2">
            <path d="M214,0.5 C214,0.5 217.502,0.736 222.115,7.006 C228.59,15.809 238.624,22.497 250.135,22.497 C262.047,22.497 271.697,14.855 278.8,6.063 C283.29,0.503 287,0.5 287,0.5 L490.5,0.5 C496.023,0.5 500.5,4.977 500.5,10.5 L500.5,590.5 C500.5,596.023 496.023,600.5 490.5,600.5 L287.49,600.5 C287.383,600.491 283.926,600.166 279.385,593.993 C272.91,585.191 262.876,578.502 251.365,578.502 C239.453,578.502 229.803,586.145 222.7,594.938 C218.422,600.236 214.86,600.488 214.532,600.5 L10.5,600.5 C4.977,600.5 0.5,596.023 0.5,590.5 L0.5,10.5 C0.5,4.977 4.977,0.5 10.5,0.5 L214,0.5 Z" id="Shape"></path>
        </g>
    </g>
</svg>