<svg 
 xmlns="http://www.w3.org/2000/svg"
 xmlns:xlink="http://www.w3.org/1999/xlink"
 width="500px" height="700px">
<path fill-rule="evenodd"  stroke="rgb(242, 242, 242)" stroke-width="1px" stroke-linecap="butt" stroke-linejoin="miter" fill="rgb(255, 255, 255)"
 d="M490.500,700.500 L287.488,700.500 C287.356,700.489 283.909,700.144 279.385,693.993 C272.910,685.190 262.876,678.503 251.365,678.503 C239.453,678.503 229.803,686.143 222.700,694.936 C218.468,700.178 214.932,700.482 214.540,700.500 L10.500,700.500 C4.977,700.500 0.500,696.023 0.500,690.500 L0.500,10.499 C0.500,4.977 4.977,0.500 10.500,0.500 L214.000,0.500 C214.000,0.500 217.502,0.734 222.115,7.007 C228.590,15.810 238.624,22.499 250.135,22.499 C262.047,22.499 271.697,14.857 278.800,6.064 C283.290,0.502 287.000,0.500 287.000,0.500 L490.500,0.500 C496.023,0.500 500.500,4.977 500.500,10.499 L500.500,690.500 C500.500,696.023 496.023,700.500 490.500,700.500 Z"/>
</svg>