<?xml version="1.0" encoding="UTF-8"?>
<svg width="15px" height="19px" viewBox="0 0 15 19" version="1.1" xmlns="http://www.w3.org/2000/svg" xmlns:xlink="http://www.w3.org/1999/xlink">
    <!-- Generator: Sketch 49.2 (51160) - http://www.bohemiancoding.com/sketch -->
    <title>Asset 1</title>
    <desc>Created with Sketch.</desc>
    <defs></defs>
    <g id="Page-1" stroke="none" stroke-width="1" fill="none" fill-rule="evenodd">
        <g id="Asset-1" fill="rgba(0,0,0,0.2)" fill-rule="nonzero">
            <path d="M4.50575711,8.7021658 C4.07794251,8.20130969 3.78071426,7.58401855 3.59049524,6.87870696 C3.35978216,6.0232478 3.30734056,5.18866397 3.34199403,4.31783577 C3.34305368,4.29120717 3.34989346,4.13723865 3.35033053,4.15066408 C3.30298031,2.68288514 4.05587474,1.30497227 5.33532,0.541250059 C5.97641746,0.186541361 6.69703935,0.000313230906 7.43,-5.55111512e-16 L7.51033276,0.000318093981 C8.2311213,0.022876238 8.93486235,0.225100677 9.57093197,0.596587503 C10.7801621,1.34153852 11.5074726,2.6652517 11.4916648,4.08102158 C11.7386743,5.21315691 11.445574,7.47210742 10.3214874,8.73665761 C9.59719971,9.5353049 8.56058186,9.97830398 7.5,9.95 L7.41476371,9.95 C6.30892041,9.99791584 5.24066757,9.54133867 4.50575711,8.7021658 Z M7.36897259,8.65074096 L7.4,8.65 L7.51720111,8.65022764 C8.21630357,8.66873464 8.88870434,8.38138388 9.35418394,7.8681635 C10.1721747,6.94792391 10.3978126,5.03000208 10.2110488,4.31407423 L10.190366,4.12819126 C10.223375,3.14492497 9.72669633,2.21943674 8.90233029,1.71136669 C8.46650897,1.4569778 7.97405276,1.3154674 7.49,1.3 L7.43027783,1.29999994 C6.91756907,1.30021909 6.41330017,1.43053577 5.98328877,1.66804892 C5.12810535,2.1787981 4.61746803,3.11341914 4.65,4.13 C4.65,4.16856859 4.64005951,4.39230521 4.64096595,4.36952667 C4.61109587,5.12014998 4.65618192,5.83767348 4.84564932,6.54019815 C4.98902309,7.0718126 5.20373024,7.51772183 5.48897259,7.85174096 C5.96106014,8.39075555 6.65326766,8.68494375 7.36897259,8.65074096 Z" id="Shape"></path>
            <path d="M13.61,14.29 L13.61,14.21 C13.61,13.1126274 13.3498893,12.4073271 12.5852561,12.1460707 C11.5370829,11.853513 10.5422448,11.3957433 9.63818626,10.7899915 C9.33995719,10.5901673 9.26018429,10.1864153 9.46000851,9.88818626 C9.65983272,9.58995719 10.0635847,9.51018429 10.3618137,9.71000851 C11.1510992,10.2388582 12.0196396,10.6385126 12.96939,10.9046498 C14.4692772,11.4150281 14.91,12.6100649 14.91,14.21 L14.91,14.2389796 C14.91,14.2772449 14.91,14.2772449 14.9096037,14.2673047 C14.9293881,14.8335931 14.8689891,15.3998338 14.7046839,16.0284478 C14.6220166,16.2380852 14.476958,16.4172752 14.248114,16.5668364 C12.172995,17.731413 9.82147967,18.3129315 7.47732992,18.2497689 C5.10154065,18.3131334 2.75299003,17.731449 0.677161749,16.5641591 C0.476607094,16.4493923 0.318148725,16.2733275 0.192265016,15.9686677 C0.0421884687,15.4101239 -0.0224614264,14.8320777 0.000950292906,14.2448649 C0.0011257316,14.241624 0.0011257316,14.238376 0.000307474,14.1800095 C0.0207379962,13.5160175 0.0750192946,13.0803753 0.267459614,12.5659908 C0.56438657,11.7723181 1.12334047,11.1762381 2.01884808,10.8729378 C2.92938931,10.6244124 3.79413691,10.2313453 4.58009412,9.70873504 C4.8790265,9.50996451 5.28249443,9.59116173 5.48126496,9.89009412 C5.68003549,10.1890265 5.59883827,10.5924944 5.29990588,10.791265 C4.39810465,11.3909039 3.40589992,11.8419061 2.39931182,12.1153768 C1.58007596,12.3940284 1.33578425,13.0470094 1.29904971,14.1648649 C1.30175926,14.2149183 1.30175926,14.2650817 1.29948695,14.3058205 C1.28273465,14.7272068 1.32624299,15.1486948 1.40106561,15.4793769 C3.24760118,16.4984352 5.33372539,17.006492 7.47725283,16.950229 C9.59452522,17.0064472 11.6878772,16.4960756 13.5015877,15.496709 C13.5876856,15.1081736 13.6242559,14.7082226 13.61,14.29 Z" id="Shape"></path>
        </g>
    </g>
</svg>