<svg id="Layer_1" data-name="Layer 1" xmlns="http://www.w3.org/2000/svg" xmlns:xlink="http://www.w3.org/1999/xlink" viewBox="0 0 34.49 42.02"><defs><style>.cls-1,.cls-3{fill:none;}.cls-2{clip-path:url(#clip-path);}.cls-3{stroke:#231f20;stroke-linecap:square;stroke-miterlimit:10;stroke-width:2px;}</style><clipPath id="clip-path" transform="translate(0 0)"><rect class="cls-1" width="34.49" height="42.02"/></clipPath></defs><title>icon-ok</title><g class="cls-2"><path class="cls-3" d="M1.21,30.6l1.9-1.89a8.09,8.09,0,0,0,2.32-5.48A55,55,0,0,1,6.91,13c1-4.19,2.91-8.45,3.77-10.88a1.72,1.72,0,0,1,2.47-.92,5.22,5.22,0,0,1,2.61,5.16L15.32,10l5.54-4.31a3.06,3.06,0,0,1,3.91.07h0a3.1,3.1,0,0,1,.16,3.82l1.6-.13a2.92,2.92,0,0,1,2.89,4l-.34.87h.16a2.92,2.92,0,0,1,2.56,4.19l-.54,1.13A2.92,2.92,0,0,1,33.07,24l-.78,1.29A27.63,27.63,0,0,1,17.09,36.2l-1.51.43-4.19,4.18a.72.72,0,0,1-1,0L1.21,31.62A.72.72,0,0,1,1.21,30.6Z" transform="translate(0 0)"/></g></svg>