<?xml version="1.0" encoding="UTF-8" standalone="no"?>
<svg width="26px" height="44px" viewBox="0 0 26 44" version="1.1" xmlns="http://www.w3.org/2000/svg" xmlns:xlink="http://www.w3.org/1999/xlink">
    <!-- Generator: Sketch 49.3 (51167) - http://www.bohemiancoding.com/sketch -->
    <title>icon-water</title>
    <desc>Created with Sketch.</desc>
    <defs></defs>
    <g id="Page-1" stroke="none" stroke-width="1" fill="none" fill-rule="evenodd">
        <g id="icon-water" transform="translate(0.000000, -1.000000)" fill="#85B30B" fill-rule="nonzero">
            <path d="M11.712351,6.60817544 C10.3545703,9.05299593 8.99675348,11.6436777 7.73035505,14.2639061 C6.73609677,16.3210656 5.83923389,18.3135825 5.063496,20.21075 C3.09383653,25.0278074 2,28.9957399 2,31.76 C2,37.6473554 6.77264457,42.42 12.66,42.42 C18.5473554,42.42 23.32,37.6473554 23.32,31.76 C23.32,28.9957399 22.2261635,25.0278074 20.256504,20.21075 C19.4807661,18.3135825 18.5839032,16.3210656 17.589645,14.2639061 C16.3232465,11.6436777 14.9654297,9.05299593 13.607649,6.60817544 C13.2735827,6.00665556 12.9563775,5.44449995 12.66,4.92673286 C12.3636225,5.44449995 12.0464173,6.00665556 11.712351,6.60817544 Z M25.32,31.76 C25.32,38.7519249 19.6519249,44.42 12.66,44.42 C5.66807507,44.42 9.99200722e-16,38.7519249 0,31.76 C2.22044605e-16,28.67112 1.15177396,24.4930173 3.21227351,19.4537987 C4.00472684,17.5157514 4.91832351,15.4860579 5.92964495,13.3935939 C7.21387152,10.7364785 8.58886725,8.11301969 9.96389899,5.63713706 C10.4452621,4.7703945 10.8924108,3.98372486 11.2939828,3.29145351 C11.5356587,2.87482752 11.7089698,2.581373 11.802546,2.42543935 L12.66,0.996594501 L13.517454,2.42543935 C13.6110302,2.581373 13.7843413,2.87482752 14.0260172,3.29145351 C14.4275892,3.98372486 14.8747379,4.7703945 15.356101,5.63713706 C16.7311328,8.11301969 18.1061285,10.7364785 19.390355,13.3935939 C20.4016765,15.4860579 21.3152732,17.5157514 22.1077265,19.4537987 C24.168226,24.4930173 25.32,28.67112 25.32,31.76 Z" id="Shape"></path>
            <path d="M11.2453971,18.7795751 C11.2569007,17.5735278 11.2371783,16.3045262 11.1937837,15.0219312 C10.8786379,15.6756829 10.5689193,16.3355992 10.2705501,16.9924589 C9.97935389,17.6335273 9.70618208,18.256182 9.45424064,18.8553425 C8.64855059,20.7714134 8.09055761,22.373822 7.84810593,23.5381076 C7.35076041,25.8756316 7.84471962,27.8514685 8.47165292,27.980543 C9.10329148,28.1105862 10.3410488,26.5061017 10.8310241,24.156024 C11.0905213,22.9097585 11.2236674,21.0577295 11.2453971,18.7795751 Z M12.7890001,24.5638596 C12.1020847,27.8587253 10.1640948,30.3709345 8.06834708,29.939457 C5.9673734,29.5069036 5.19268787,26.4081615 5.89099986,23.1261404 C6.1645098,21.8126566 6.75915681,20.1049874 7.6105996,18.0801086 C7.87020325,17.462726 8.15090493,16.8229081 8.44960483,16.1653203 C9.03321002,14.8805137 9.65769473,13.5876341 10.2821462,12.3494358 C10.500719,11.9160371 10.7037755,11.5202353 10.8861793,11.1699492 C10.9960733,10.9589101 11.0749945,10.8093228 11.1177997,10.7291256 L12.742026,7.68607876 L12.9972587,11.1260063 C13.0052919,11.2342745 13.0191387,11.4350309 13.0368562,11.7160236 C13.0662794,12.1826611 13.0956786,12.7049414 13.1231087,13.2706436 C13.2138885,15.1428319 13.2621594,17.0317437 13.2453061,18.7986507 C13.222428,21.1972088 13.0813064,23.1601098 12.7890001,24.5638596 Z" id="Shape"></path>
        </g>
    </g>
</svg>