<svg id="Layer_1" data-name="Layer 1" xmlns="http://www.w3.org/2000/svg" xmlns:xlink="http://www.w3.org/1999/xlink" viewBox="0 0 44.72 44.72"><defs><style>.cls-1,.cls-3{fill:none;}.cls-2{clip-path:url(#clip-path);}.cls-3{stroke:#231f20;stroke-linecap:square;stroke-miterlimit:10;stroke-width:2px;}</style><clipPath id="clip-path" transform="translate(0 0)"><rect class="cls-1" width="44.72" height="44.72"/></clipPath></defs><title>3</title><g class="cls-2"><path class="cls-3" d="M35.85,19.61,20,35.42a2.74,2.74,0,0,1-3.88,0L9.31,28.57a2.75,2.75,0,0,1,0-3.88L25.12,8.87a2.74,2.74,0,0,1,3.88,0l6.85,6.85A2.75,2.75,0,0,1,35.85,19.61Z" transform="translate(0 0)"/><path class="cls-3" d="M15.16,35.25,9.94,42.39l-.36-1.53A2.57,2.57,0,0,0,7.67,39a2.57,2.57,0,0,1-1.9-1.9,2.57,2.57,0,0,0-1.9-1.9l-1.53-.36,7.13-5.23" transform="translate(0 0)"/><path class="cls-3" d="M35.63,14.79,42.42,9.9l-1.5-.4A2.7,2.7,0,0,1,39,7.61a2.7,2.7,0,0,0-1.9-1.9,2.7,2.7,0,0,1-1.9-1.9l-.4-1.5L29.93,9.1" transform="translate(0 0)"/></g></svg>