<svg id="Layer_1" data-name="Layer 1" xmlns="http://www.w3.org/2000/svg" xmlns:xlink="http://www.w3.org/1999/xlink" viewBox="0 0 20.01 42.74"><defs><style>.cls-1,.cls-3{fill:none;}.cls-2{clip-path:url(#clip-path);}.cls-3{stroke:#231f20;stroke-linecap:round;stroke-miterlimit:10;stroke-width:2px;}</style><clipPath id="clip-path" transform="translate(0 0)"><rect class="cls-1" width="20.01" height="42.74"/></clipPath></defs><title>2</title><g class="cls-2"><path class="cls-3" d="M1,1V2.46a8.48,8.48,0,0,0,5.88,8.26l6.38,2.19a8.15,8.15,0,0,1,2.8,1.66,9.3,9.3,0,0,1,.06,13.52l0,0a8.15,8.15,0,0,1-2.86,1.71L6.88,32A8.48,8.48,0,0,0,1,40.27v1.46" transform="translate(0 0)"/><path class="cls-3" d="M12.32,30.68A9.65,9.65,0,0,1,19,40.07v1.66" transform="translate(0 0)"/><path class="cls-3" d="M4,14.57H4A9.31,9.31,0,0,0,3.9,28.09l0,0" transform="translate(0 0)"/><path class="cls-3" d="M19,1V2.71a9.91,9.91,0,0,1-6.86,9.65" transform="translate(0 0)"/><line class="cls-3" x1="1.96" y1="3.81" x2="18.13" y2="3.81"/><line class="cls-3" x1="3.47" y1="7.76" x2="16.62" y2="7.76"/><line class="cls-3" x1="1.1" y1="38.85" x2="18.13" y2="38.85"/><line class="cls-3" x1="2.88" y1="34.9" x2="17.21" y2="34.9"/><line class="cls-3" x1="1.1" y1="21.33" x2="18.99" y2="21.33"/><line class="cls-3" x1="2.64" y1="17.38" x2="18.03" y2="17.38"/><line class="cls-3" x1="2.64" y1="25.08" x2="17.45" y2="25.08"/></g></svg>