<?xml version="1.0" encoding="UTF-8"?>
<svg width="18px" height="18px" viewBox="0 0 18 18" version="1.1" xmlns="http://www.w3.org/2000/svg" xmlns:xlink="http://www.w3.org/1999/xlink">
    <!-- Generator: Sketch 49.2 (51160) - http://www.bohemiancoding.com/sketch -->
    <title>phone</title>
    <desc>Created with Sketch.</desc>
    <defs></defs>
    <g id="Page-1" stroke="none" stroke-width="1" fill="none" fill-rule="evenodd">
        <g id="phone" fill="rgba(0,0,0,0.2)" fill-rule="nonzero">
            <path d="M16.3992153,12.063252 C16.8224902,12.420462 17.0667157,12.9461403 17.0667157,13.5 C17.0667157,14.0538597 16.8224902,14.579538 16.4454001,14.8937651 C16.3178831,15.0245518 16.2094071,15.1318898 15.98706,15.3491285 C15.6167018,15.7109923 15.4567491,15.8724517 15.2850529,16.0626936 C14.6410142,16.7846659 13.6856818,17.1476922 12.7464395,17.0377895 C11.5549906,16.9392782 10.3956007,16.6017343 9.35649074,16.0549124 C7.0713572,14.9472994 5.04804766,13.3661467 3.429334,11.4263178 C2.18934259,9.99916273 1.20627089,8.36775701 0.53148018,6.62352322 C0.147498914,5.71701693 -0.0304211946,4.73656356 0.0141925787,3.70629264 C0.0929894653,3.01589191 0.429310087,2.38061962 0.936493137,1.94481408 C1.1449941,1.75021318 1.32289204,1.57390886 1.6625354,1.2295595 C1.72349289,1.16774442 1.72349289,1.16774442 1.78483234,1.1055776 C1.96953945,0.918471701 2.09492475,0.792925131 2.19117886,0.701568098 C2.54814822,0.294282438 3.06342015,0.0607249842 3.605,0.0607249842 C4.14657985,0.0607249842 4.66185178,0.294282438 4.98961941,0.670380592 L5.98961941,1.67038059 L6.94606416,2.63060976 C7.37478643,2.9877973 7.62267859,3.51698053 7.62267859,4.075 C7.62267859,4.63301947 7.37478643,5.1622027 6.98961941,5.47961941 C6.46843162,6.00080719 6.18431194,6.28383173 5.87524276,6.58472403 C6.13191501,7.11479442 6.45607263,7.61222763 6.850123,8.07716688 C7.71436204,9.17158584 8.75255336,10.1165649 9.91632863,10.8699487 C10.0252731,10.9385433 10.1317152,10.9938106 10.3598002,11.1037349 C10.4198845,11.1326854 10.4537871,11.1490783 10.4852204,11.1644991 L11.5571721,10.0861832 C11.9124198,9.6730897 12.4301632,9.43547156 12.975,9.43547156 C13.5100307,9.43547156 14.0189344,9.66461325 14.3734892,10.0640492 L16.3992153,12.063252 Z M10.7976834,11.3309865 C10.7860855,11.3227063 10.7741099,11.3150908 10.7618139,11.3081531 C10.7716782,11.3161635 10.7844058,11.3233992 10.7976834,11.3309865 Z M10.7173303,12.5435933 C10.4807145,12.584156 10.2376995,12.528505 10.1130561,12.432962 C10.0360167,12.3916909 9.96758296,12.3577874 9.81705668,12.2852604 C9.52439836,12.1442174 9.38690068,12.0728254 9.2167903,11.9656582 C7.9265854,11.1304965 6.78237297,10.0890152 5.84438068,8.90054904 C5.33069095,8.29516291 4.90674374,7.6190402 4.6080663,6.9388557 C4.3958998,6.5459694 4.49647511,6.05746073 4.79581931,5.82500548 C5.15228782,5.47682694 5.43218025,5.19858093 6.11393584,4.52060976 C6.24620122,4.4104136 6.32267859,4.24715494 6.32267859,4.075 C6.32267859,3.90284506 6.24620122,3.7395864 6.07038059,3.58961941 L5.07038059,2.58961941 L4.04117886,1.5584319 C3.93105002,1.43277994 3.77208315,1.36072498 3.605,1.36072498 C3.43791685,1.36072498 3.27894998,1.43277994 3.13430642,1.59487168 C3.01033527,1.7160253 2.88966509,1.83685069 2.70998247,2.01886684 C2.64916017,2.08050955 2.64916017,2.08050955 2.58807685,2.14245217 C2.23636927,2.4990329 2.04896615,2.68475726 1.80400647,2.9126647 C1.52539857,3.15244554 1.34748983,3.48849537 1.30943649,3.80706011 C1.27646383,4.59839645 1.41960256,5.38718224 1.73617556,6.13537009 C2.36436021,7.75830971 3.26926718,9.26000121 4.4190455,10.5835224 C5.92796987,12.3915954 7.80433514,13.8579158 9.94253021,14.8946953 C10.8461027,15.3698487 11.8361435,15.6580884 12.875292,15.7443754 C13.4156375,15.8073898 13.9528109,15.6032639 14.3174445,15.1945231 C14.5157057,14.9748282 14.6890439,14.7998572 15.0484621,14.4486809 C15.2935446,14.2092296 15.3967452,14.1071115 15.5607847,13.943252 C15.6913695,13.833049 15.7667157,13.6708716 15.7667157,13.5 C15.7667157,13.3291284 15.6913695,13.166951 15.5237313,13.0229458 L13.4437313,10.9729458 L13.4071721,10.9338168 C13.2988881,10.8079006 13.1410733,10.7354716 12.975,10.7354716 C12.8089267,10.7354716 12.6511119,10.8079006 12.5114043,10.9678275 L11.2583488,12.2306726 C11.1217017,12.3956426 10.9300252,12.5071313 10.7173303,12.5435933 Z" id="Shape"></path>
        </g>
    </g>
</svg>