<?xml version="1.0" encoding="UTF-8" standalone="no"?>
<svg width="12px" height="18px" viewBox="0 0 12 18" version="1.1" xmlns="http://www.w3.org/2000/svg" xmlns:xlink="http://www.w3.org/1999/xlink">
    <!-- Generator: Sketch 49.3 (51167) - http://www.bohemiancoding.com/sketch -->
    <title>icon-map</title>
    <desc>Created with Sketch.</desc>
    <defs></defs>
    <g id="Page-1" stroke="none" stroke-width="1" fill="none" fill-rule="evenodd">
        <g id="icon-map" fill="#85B30B" fill-rule="nonzero">
            <path d="M5.825,1.69430318 C3.45141944,1.69430318 1.47845094,3.52266236 1.3,5.84 C1.3,6.70682566 1.90255325,8.31935577 2.95771829,10.3871517 C3.21565495,10.8926274 3.49702504,11.4186382 3.79815893,11.9605042 C4.35708193,12.9662406 4.95666797,13.9784487 5.5562927,14.9462539 C5.64415905,15.0880718 5.72938323,15.2246512 5.8115941,15.3555296 C5.89456288,15.2242148 5.9805861,15.0871554 6.06928633,14.9448191 C6.67239134,13.9770235 7.27545688,12.9648262 7.83762118,11.9591045 C8.14049933,11.4172502 8.4234984,10.8912522 8.68292707,10.3857913 C9.73441312,8.337116 10.3389859,6.73531724 10.349851,5.8637157 C10.1572674,3.50945629 8.18999296,1.69430318 5.825,1.69430318 Z M11.6481214,5.79061714 C11.65,6.98572191 10.9956107,8.72685095 9.83948723,10.9793977 C9.57267704,11.4992405 9.28245075,12.0386715 8.97237882,12.5933955 C8.39923062,13.6187676 7.78588991,14.6482109 7.17258867,15.6323684 C6.95792903,15.9768302 6.75851935,16.2911657 6.57940987,16.5691478 C6.47154756,16.7365526 6.39412878,16.8550774 6.35221015,16.9184803 C6.09481673,17.3077941 5.52319221,17.3070327 5.26683681,16.9170347 C5.22516127,16.8536329 5.14819085,16.7351094 5.04095297,16.5677061 C4.86288013,16.2897261 4.66462454,15.9753929 4.4512073,15.6309336 C3.84145703,14.6467856 3.23166807,13.6173531 2.66184107,12.5919958 C2.35356795,12.0372834 2.06502612,11.4978653 1.79976576,10.9780374 C0.650527198,8.72588661 3.32633227e-16,6.98497043 0.00187861272,5.79061714 C0.233844379,2.74620133 2.7717598,0.394303183 5.825,0.394303183 C8.8782402,0.394303183 11.4161556,2.74620133 11.6481214,5.79061714 Z" id="Shape"></path>
            <path d="M5.84,7.63 C4.60288216,7.63 3.6,6.62711784 3.6,5.39 C3.6,4.15288216 4.60288216,3.15 5.84,3.15 C7.07711784,3.15 8.08,4.15288216 8.08,5.39 C8.08,6.62711784 7.07711784,7.63 5.84,7.63 Z M5.84,6.33 C6.35914766,6.33 6.78,5.90914766 6.78,5.39 C6.78,4.87085234 6.35914766,4.45 5.84,4.45 C5.32085234,4.45 4.9,4.87085234 4.9,5.39 C4.9,5.90914766 5.32085234,6.33 5.84,6.33 Z" id="Oval"></path>
        </g>
    </g>
</svg>