<?xml version="1.0" encoding="UTF-8" standalone="no"?>
<svg width="45px" height="44px" viewBox="0 0 45 44" version="1.1" xmlns="http://www.w3.org/2000/svg" xmlns:xlink="http://www.w3.org/1999/xlink">
    <!-- Generator: Sketch 49.3 (51167) - http://www.bohemiancoding.com/sketch -->
    <title>icon-plant</title>
    <desc>Created with Sketch.</desc>
    <defs></defs>
    <g id="Page-1" stroke="none" stroke-width="1" fill="none" fill-rule="evenodd">
        <g id="icon-plant" transform="translate(1.000000, 4.000000)" fill="#85B30B" fill-rule="nonzero">
            <path d="M28.010796,37.3346936 L27.84,39.32 L20.89,39.32 C14.1518474,39.32 9.63588483,37.4008144 6.85224262,33.7179786 C4.70762875,30.880595 3.76597778,27.54008 3.07643915,22.0232998 C2.59483699,17.7999819 1.46193655,13.6767513 -0.281966919,9.80026374 L-0.916397916,8.39 L0.63,8.39 C1.21333449,8.39 2.07439926,8.66438074 3.08753484,9.41767067 C4.63108761,10.5653381 6.12888015,12.5698968 7.49726816,15.6221819 C7.78129729,16.2557288 8.05791633,16.9311628 8.32645783,17.6492198 C10.3546136,23.0636713 13.1460282,27.3532002 16.5063284,30.6535965 C19.0494455,33.1513776 21.7694891,34.94291 24.4842524,36.1454227 C25.4289219,36.5638669 26.3030816,36.878561 27.0833354,37.1039687 C27.5408278,37.2361338 27.857843,37.3081802 28.010796,37.3346936 Z M15.1048904,32.0804712 C11.5366441,28.5758358 8.58418198,24.0388275 6.45335825,18.3502888 C6.19926266,17.6708593 5.9386968,17.0346231 5.67227679,16.4403546 C4.68288273,14.2334419 3.65721696,12.6841503 2.64771946,11.6776899 C3.85676045,14.937172 4.66854382,18.3327867 5.06227788,21.7859653 C5.70980752,26.9662024 6.5744746,30.0336164 8.44775738,32.5120214 C10.8237009,35.6554606 14.7404653,37.32 20.89,37.32 L22.3036385,37.32 C19.8399142,36.0582833 17.4015143,34.3361534 15.1048904,32.0804712 Z" id="Shape"></path>
            <path d="M37.3368589,17.538994 C36.8194288,18.3903213 36.3263815,19.3667153 35.8683351,20.4617445 C33.2370313,27.0327401 28.4008069,32.4830882 22.1895562,35.8775111 L21.3120451,36.3570674 L20.3529326,34.6020451 L21.2304438,34.1224889 C27.034132,30.950797 31.5530188,25.8580833 34.0174201,19.7041939 C34.5189761,18.504821 35.0571007,17.4391591 35.6277764,16.500227 C36.9472507,14.3292971 38.3927154,12.902364 39.8704857,12.0919059 C40.8157215,11.5735073 41.5964617,11.39 42.11,11.39 L43.8553624,11.39 L42.9726976,12.8957201 C41.0173858,16.2312471 39.7519887,19.9255493 39.2503369,23.7686827 C37.9679969,32.9259055 34.6675592,39.32 28.33,39.32 L27.33,39.32 L27.33,37.32 L28.33,37.32 C33.2249734,37.32 36.1180329,31.7151386 37.2684105,23.5005772 C37.6765574,20.3735062 38.5606643,17.3332723 39.8850972,14.4839082 C39.0304113,15.1702022 38.1703657,16.167626 37.3368589,17.538994 Z" id="Shape"></path>
            <path d="M20.3273276,10.4826467 C20.1638841,11.1829514 20.0063434,11.8678387 19.8553939,12.534964 C19.2862313,15.0503917 18.8236937,17.2551642 18.4919218,19.069287 C17.7669956,22.8298253 17.2679625,26.6304083 16.9975033,30.4506202 L16.9268831,31.4481234 L14.9318766,31.3068831 L15.0024967,30.3093798 C15.2785958,26.4095055 15.7880351,22.5296695 16.5263105,18.7001253 C16.8620429,16.8640887 17.3299206,14.6338616 17.9047058,12.0935844 C18.0566795,11.4219326 18.2152278,10.7326649 18.3796692,10.0280844 C18.9096427,7.7573124 19.4772689,5.42642109 20.0448797,3.16306509 C20.2435388,2.37090912 20.4280266,1.64369612 20.5936281,0.997418382 C20.6930824,0.60928749 20.7642096,0.334121774 20.802293,0.187922467 L21.8914126,-3.99312738 L22.7500536,0.241266899 C22.7824651,0.401104441 22.8433957,0.701169752 22.9288254,1.12122385 C23.0712251,1.82139676 23.2301912,2.60160977 23.401749,3.44184656 C23.8919008,5.8424577 24.3847356,8.24303973 24.8484389,10.4833886 C24.8820703,10.6458526 24.8820703,10.6458526 24.9157107,10.8082657 C26.002878,16.0562321 26.7518039,19.5593114 26.9860632,20.4416943 C27.8374933,23.6260427 28.4543031,27.8702819 28.1219676,30.4764925 L27.9954751,31.4684601 L26.0115399,31.2154751 L26.1380324,30.2235075 C26.4290308,27.941468 25.8431222,23.9098593 25.0534817,20.9565978 C24.8040961,20.0172452 24.0586816,16.5305902 22.9572922,11.2139712 C22.9236159,11.0513852 22.9236159,11.0513852 22.8899498,10.8887531 C22.4960902,8.98584925 22.0812939,6.96774724 21.6649767,4.93222624 C21.207647,6.7770571 20.7550295,8.65007662 20.3273276,10.4826467 Z" id="Shape"></path>
            <path d="M11.3583624,23.4827933 L11.4155691,24.4811556 L9.41884438,24.5955691 L9.36163765,23.5972067 C8.97010679,16.7642758 9.25079457,9.90940687 10.199657,3.13136132 L10.7744358,-0.974478793 L18.342735,20.8165595 L16.4534405,21.472735 L11.6712316,7.70355182 C11.1617701,12.9453072 11.0568404,18.2206825 11.3583624,23.4827933 Z" id="Shape"></path>
            <path d="M26.9876951,21.4721843 L25.0978157,20.8176951 L32.643885,-0.972062019 L33.2298434,3.10783793 C34.1784926,9.7130744 34.4593896,16.3970703 34.0682809,23.0586105 L34.0096704,24.0568914 L32.0131086,23.9396704 L32.0717191,22.9413895 C32.3707516,17.8481315 32.2688758,12.7414768 31.7680717,7.66854142 L26.9876951,21.4721843 Z" id="Shape"></path>
        </g>
    </g>
</svg>