<svg 
 xmlns="http://www.w3.org/2000/svg"
 xmlns:xlink="http://www.w3.org/1999/xlink"
 width="20px" height="19px">
<path fill-rule="evenodd"  opacity="0.149" fill="rgb(26, 26, 31)"
 d="M6.160,0.005 C6.160,0.005 0.693,4.193 0.693,12.494 L0.693,17.556 C0.693,17.556 2.177,18.097 4.945,18.097 C7.915,18.097 9.197,17.556 9.197,17.556 L9.197,9.794 C9.197,9.794 8.387,9.456 6.497,9.321 C6.835,4.596 9.130,2.032 9.130,2.032 L6.160,0.005 ZM16.959,0.005 C16.959,0.005 11.492,4.193 11.492,12.494 L11.492,17.556 C11.492,17.556 12.977,18.097 15.744,18.097 C18.714,18.097 19.997,17.556 19.997,17.556 L19.997,9.794 C19.997,9.794 19.187,9.456 17.297,9.321 C17.634,4.596 19.929,2.032 19.929,2.032 L16.959,0.005 Z"/>
</svg>