<?xml version="1.0" encoding="UTF-8" standalone="no"?>
<svg width="20px" height="44px" viewBox="0 0 20 44" version="1.1" xmlns="http://www.w3.org/2000/svg" xmlns:xlink="http://www.w3.org/1999/xlink">
    <!-- Generator: Sketch 49.3 (51167) - http://www.bohemiancoding.com/sketch -->
    <title>icon-vial</title>
    <desc>Created with Sketch.</desc>
    <defs></defs>
    <g id="Page-1" stroke="none" stroke-width="1" fill="none" fill-rule="evenodd">
        <g id="icon-vial" fill="#85B30B" fill-rule="nonzero">
            <path d="M4.28,2 L4.28,35.6500012 C4.27999827,37.104854 4.85851448,38.4999965 5.88804361,39.5279393 C6.91757274,40.5558821 8.31360574,41.1322463 9.76845679,41.1300012 C11.2338747,41.1367683 12.6355484,40.5612351 13.668987,39.5309715 C14.7024255,38.5007079 15.2822688,37.1008117 15.28,35.6399998 L15.2800076,2 L4.28,2 Z M4.47492084,40.9432429 C3.06965115,39.5401385 2.27999764,37.6358198 2.28,35.65 L2.28,0 L17.2800081,0 L17.2800078,1.00000023 L17.2799988,35.6384461 C17.283094,37.6302797 16.491629,39.5410868 15.0810231,40.9473591 C13.671146,42.3529048 11.7591606,43.1384013 9.76845622,43.1300029 C7.78374986,43.1322478 5.87946232,42.3456202 4.47492084,40.9432429 Z" id="Shape"></path>
            <polygon id="Shape" points="0 2 0 0 19.54 0 19.54 2"></polygon>
            <polygon id="Shape" points="2.29 8.8 2.29 6.8 7.3 6.8 7.3 8.8"></polygon>
            <polygon id="Shape" points="2.29 17.49 2.29 15.49 7.3 15.49 7.3 17.49"></polygon>
            <polygon id="Shape" points="2.29 26.17 2.29 24.17 7.3 24.17 7.3 26.17"></polygon>
            <polygon id="Shape" points="2.29 34.86 2.29 32.86 7.3 32.86 7.3 34.86"></polygon>
            <path d="M4.44943163,22.1333147 L3.5561169,22.5827464 L2.65725364,20.7961169 L3.55056837,20.3466853 C3.77459013,20.2339787 4.14504797,20.078591 4.62938539,19.9261376 C5.95822218,19.5078639 7.34138723,19.3711949 8.67462736,19.6996601 C9.25483601,19.8426039 9.80452625,20.0721137 10.3147379,20.394982 C10.6384172,20.5998103 10.9883005,20.7458956 11.3637994,20.8384059 C12.2874749,21.0659682 13.3206775,20.9638786 14.3301261,20.6461376 C14.7035665,20.528591 14.9768124,20.4139787 15.1105684,20.3466853 L16.0038831,19.8972536 L16.9027464,21.6838831 L16.0094316,22.1333147 C15.7854099,22.2460213 15.414952,22.401409 14.9306146,22.5538624 C13.6017778,22.9721361 12.2186128,23.1088051 10.8853726,22.7803399 C10.305164,22.6373961 9.75547375,22.4078863 9.24526207,22.085018 C8.92158279,21.8801897 8.57169948,21.7341044 8.19620057,21.6415941 C7.27252513,21.4140318 6.23932253,21.5161214 5.22987387,21.8338624 C4.85643352,21.951409 4.58318764,22.0660213 4.44943163,22.1333147 Z" id="Shape"></path>
        </g>
    </g>
</svg>