<svg 
 xmlns="http://www.w3.org/2000/svg"
 xmlns:xlink="http://www.w3.org/1999/xlink"
 width="19px" height="18px">
<path fill-rule="evenodd"  opacity="0.149" fill="rgb(26, 26, 31)"
 d="M13.616,17.993 C13.616,17.993 18.995,13.830 18.995,5.571 L18.995,0.537 C18.995,0.537 17.534,-0.001 14.812,-0.001 C11.890,-0.001 10.628,0.537 10.628,0.537 L10.628,8.258 C10.628,8.258 11.425,8.594 13.284,8.727 C12.952,13.428 10.694,15.980 10.694,15.980 L13.616,17.993 ZM2.991,17.993 C2.991,17.993 8.370,13.830 8.370,5.571 L8.370,0.537 C8.370,0.537 6.909,-0.001 4.187,-0.001 C1.265,-0.001 0.003,0.537 0.003,0.537 L0.003,8.258 C0.003,8.258 0.800,8.594 2.659,8.727 C2.327,13.428 0.070,15.980 0.070,15.980 L2.991,17.993 Z"/>
</svg>