<svg id="Layer_1" data-name="Layer 1" xmlns="http://www.w3.org/2000/svg" xmlns:xlink="http://www.w3.org/1999/xlink" viewBox="0 0 44.96 43.32"><defs><style>.cls-1,.cls-3{fill:none;}.cls-2{clip-path:url(#clip-path);}.cls-3{stroke:#231f20;stroke-linecap:square;stroke-miterlimit:10;stroke-width:2px;}</style><clipPath id="clip-path" transform="translate(0 0)"><rect class="cls-1" width="44.96" height="43.32"/></clipPath></defs><title>icon-plant-b</title><g class="cls-2"><path class="cls-3" d="M28.84,42.32S15.11,39.94,8.39,22c-3.22-8.61-6.76-8.61-6.76-8.61A42.16,42.16,0,0,1,5.07,25.91c1,8,2.94,16.41,16.82,16.41Z" transform="translate(0 0)"/><path class="cls-3" d="M22.71,39A29.48,29.48,0,0,0,35.94,24.09c3.22-7.7,7.17-7.7,7.17-7.7a29.87,29.87,0,0,0-3.85,11.24c-.78,5.57-3.14,14.69-9.93,14.69" transform="translate(0 0)"/><path class="cls-3" d="M17,34.38a96.91,96.91,0,0,1,1.51-11.5c1.28-7,4.26-18.44,4.26-18.44s3.65,18,4.25,20.26c.5,1.87,1.49,6.67,1.11,9.65" transform="translate(0 0)"/><path class="cls-3" d="M11.36,27.54a103.5,103.5,0,0,1,.83-20.27L18.07,24.2" transform="translate(0 0)"/><path class="cls-3" d="M34.07,27a98.37,98.37,0,0,0-.83-19.75L27.37,24.2" transform="translate(0 0)"/></g></svg>