<?xml version="1.0" encoding="UTF-8"?>
<svg width="209px" height="77px" viewBox="0 0 209 77" version="1.1" xmlns="http://www.w3.org/2000/svg" xmlns:xlink="http://www.w3.org/1999/xlink">
    <!-- Generator: Sketch 49.3 (51167) - http://www.bohemiancoding.com/sketch -->
    <title>tfa</title>
    <desc>Created with Sketch.</desc>
    <defs></defs>
    <g id="Page-1" stroke="none" stroke-width="1" fill="none" fill-rule="evenodd">
        <g id="tfa" fill="#C2C2C3" fill-rule="nonzero">
            <path d="M0,16.81 C0.00548327477,18.2712773 1.18872269,19.4545167 2.65,19.46 L21.24,19.46 C22.705181,19.4599896 23.8944918,20.6448293 23.9,22.11 L23.9,74.22 C23.9054833,75.6812773 25.0887227,76.8645167 26.55,76.87 L43.8,76.87 C45.2612773,76.8645167 46.4445167,75.6812773 46.45,74.22 L46.45,22.12 C46.4554833,20.6587227 47.6387227,19.4754833 49.1,19.47 L67.69,19.47 C69.1512773,19.4645167 70.3345167,18.2812773 70.34,16.82 L70.34,2.88 C70.3400104,1.41481896 69.1551707,0.225508199 67.69,0.22 L2.69,0.22 C1.97934061,0.211984533 1.29502658,0.488691217 0.789672487,0.988409395 C0.28431839,1.48812757 -4.52014462e-05,2.16929541 0,2.88 L0,16.81 Z" id="Shape"></path>
            <path d="M122.52,18.58 C127.25,18.21 132.52,18.18 134.22,18.58 C135.92,18.98 137.33,19.05 137.33,18.86 C137.33,18.67 137.33,16.45 137.39,13.92 C137.390576,11.5848323 137.689667,9.25931734 138.28,7 C138.70603,5.7718856 139.338433,4.6254432 140.15,3.61 C140.724211,3.01110325 141.342619,2.45620728 142,1.95 C142.77139,1.46546506 143.580693,1.04409225 144.42,0.69 C145.33,0.31 145.42,7.10542736e-15 144.6,7.10542736e-15 L86.25,7.10542736e-15 C84,-5.55111512e-16 82.15,1.24 82.15,2.75 L82.15,73.48 C82.05233,75.1122683 83.2798215,76.5221045 84.91,76.65 L105.32,76.65 C105.111176,75.1825708 104.759506,73.7390495 104.27,72.34 C103.451778,68.9181965 103.062123,65.4079447 103.11,61.89 C103.17,58.51 103.37,55.73 103.55,55.72 C103.73,55.71 107.75,55.72 112.49,55.72 C117.23,55.72 121.96,55.45 123,55.09 C124.109657,54.6503108 124.927196,53.6865141 125.18,52.52 C125.387467,50.262816 125.480919,47.996602 125.46,45.73 L125.46,40.59 C125.46,40.44 124.63,40.32 123.61,40.32 L119.8,40.32 C117.530858,40.1073957 115.285258,39.6924115 113.09,39.08 C110.297429,38.2602948 107.842993,36.5632278 106.09,34.24 C104.624074,31.6953909 103.640906,28.9018371 103.19,26 C102.87,23.45 102.61,20.71 102.61,19.91 C102.61,19.11 102.7,18.46 102.81,18.46 L104.74,18.46 C105.69,18.46 108.12,18.64 110.13,18.86 C114.218326,19.0412665 118.314212,18.9477227 122.39,18.58 L122.52,18.58 Z" id="Shape"></path>
            <path d="M185.85,8.17 C184.32,3.68 180.56,0 177.48,0 L159.77,0 C159.342768,0.110550736 158.924829,0.254321801 158.52,0.43 C157.868392,0.717010467 157.310528,1.1813192 156.91,1.77 C156.588215,2.36822722 156.387714,3.02410314 156.32,3.7 C156.32,4.26 156.06,6.62 155.82,8.95 C155.551461,12.80394 155.491373,16.6695756 155.64,20.53 C155.642543,25.581649 154.945935,30.6093448 153.57,35.47 C152.141337,39.9282997 149.97089,44.1136788 147.15,47.85 C144.850982,50.539005 142.269476,52.9729966 139.45,55.11 C137.391098,56.575488 136.013112,58.8120096 135.63,61.31 C135.447983,63.9205474 135.114085,66.5182788 134.63,69.09 C134.19,71.31 133.8,73.09 133.77,73.15 C133.74,73.21 133.37,73.95 132.96,74.91 C132.55,75.87 132.41,76.65 132.67,76.65 L152,76.65 C153.127379,76.5855777 154.101799,75.840899 154.46,74.77 L155.4,71.62 L156.33,68.51 C156.859144,67.3392337 158.046297,66.6071562 159.33,66.66 L182.14,66.66 C183.466888,66.754776 184.601015,67.6509751 185,68.92 L185.93,72.03 L186.75,74.76 C187.175029,75.8755932 188.236349,76.6201014 189.43,76.64 L206.43,76.64 C207.9,76.64 208.75,75.64 208.32,74.34 L204.77,63.87 L185.85,8.17 Z M164.63,48.89 C163.33,48.89 162.63,47.72 163.04,46.29 L166.29,35.43 L166.35,35.24 L169.73,24 C170.22,22.35 171.05,22.41 171.57,24.14 L175,35.46 L178.24,46.28 C178.67,47.71 178.12,48.88 177.03,48.88 L164.63,48.88 L164.63,48.89 Z" id="Shape"></path>
            <path d="M144.65,6.47 C144.65,7.47515824 145.464842,8.29 146.47,8.29 C147.475158,8.29 148.29,7.47515824 148.29,6.47 C148.29,5.46484176 147.475158,4.65 146.47,4.65 C145.464842,4.65 144.65,5.46484176 144.65,6.47" id="Shape"></path>
        </g>
    </g>
</svg>